# File created by Blade
# Date/Time:  Wed Apr 08 17:04:22 2015
# Frame Rate: 120.000 fps
#------------------------------------------------------
:FULLY-SPECIFIED
:DEGREES
1064
root 3.722403 35.888784 4.176217 -144.704977 -78.953732 173.218915
Spine -28.723455 -14.787541 -2.305792
Head 51.496173 -12.732862 -16.898402
LeftShoulder 14.948161 -0.459272 27.556089
LeftArm 109.201118 41.879024 -34.093445
LeftForeArm -1.914313 -0.000000 92.108701
LeftHand -7.089448 0.000000 -17.157695
LeftHandThumb1 -26.253704 0.000000 33.147579
RightShoulder -29.955263 -76.208136 -0.153475
RightArm 51.797378 -42.752498 30.284797
RightForeArm 6.742010 -0.000000 70.736702
RightHand -2.461637 -0.000000 36.354726
RightHandThumb1 -24.326973 -0.000000 -32.862282
LeftUpLeg -32.575324 11.063927 -4.352027
LeftLeg 20.578524 -0.000000 -0.000000
LeftFoot -18.486891 11.071111 -16.004924
LeftToeBase 8.869989 -0.000000 -0.000000
RightUpLeg -35.418579 -4.787851 -10.200513
RightLeg 17.433909 -0.000000 -0.000000
RightFoot -10.983041 3.496963 20.257719
RightToeBase 13.836406 -0.000000 -0.000000
1065
root 3.721825 35.889216 4.186002 -144.567816 -78.942478 173.116880
Spine -28.821930 -14.826244 -2.208482
Head 51.448708 -12.725176 -16.954256
LeftShoulder 14.873113 -0.398272 27.525743
LeftArm 109.230627 41.870747 -34.092960
LeftForeArm -1.944811 -0.000000 92.113196
LeftHand -7.065223 -0.000000 -17.245012
LeftHandThumb1 -26.253704 0.000000 33.147579
RightShoulder -29.498567 -76.154710 -0.670798
RightArm 51.379039 -42.507200 31.065489
RightForeArm 9.796674 0.000000 70.970446
RightHand -2.577953 -0.000000 36.466830
RightHandThumb1 -24.326973 -0.000000 -32.862282
LeftUpLeg -32.620654 11.052698 -4.397975
LeftLeg 20.589561 -0.000000 -0.000000
LeftFoot -18.479253 11.074476 -15.986545
LeftToeBase 8.910353 -0.000000 -0.000000
RightUpLeg -35.461470 -4.820902 -10.224445
RightLeg 17.440248 -0.000000 -0.000000
RightFoot -10.971387 3.500470 20.269654
RightToeBase 13.859522 -0.000000 -0.000000
1066
root 3.722083 35.889874 4.195045 -144.413726 -78.948006 173.024421
Spine -28.951241 -14.866393 -2.092301
Head 51.419245 -12.717968 -17.032939
LeftShoulder 14.801782 -0.361539 27.487876
LeftArm 109.250170 41.870600 -34.075084
LeftForeArm -1.904673 -0.000000 92.143959
LeftHand -7.055905 -0.000000 -17.218876
LeftHandThumb1 -26.253704 0.000000 33.147579
RightShoulder -29.159355 -76.102798 -1.070342
RightArm 50.972846 -42.271965 31.766353
RightForeArm 13.296055 -0.000000 71.092941
RightHand -2.638357 0.000000 36.582930
RightHandThumb1 -24.326973 -0.000000 -32.862282
LeftUpLeg -32.691747 11.021294 -4.436233
LeftLeg 20.595555 -0.000000 -0.000000
LeftFoot -18.473031 11.089909 -15.990021
LeftToeBase 8.876801 -0.000000 -0.000000
RightUpLeg -35.529108 -4.859748 -10.236884
RightLeg 17.448876 -0.000000 -0.000000
RightFoot -10.966871 3.489114 20.246804
RightToeBase 13.843521 -0.000000 -0.000000
1067
root 3.720693 35.889437 4.203597 -144.303051 -78.942636 172.934070
Spine -29.022591 -14.860323 -2.036236
Head 51.404739 -12.786264 -17.084648
LeftShoulder 14.781079 -0.349556 27.486358
LeftArm 109.257736 41.884988 -34.093101
LeftForeArm -1.837703 -0.000000 92.152647
LeftHand -7.034338 -0.000000 -17.253125
LeftHandThumb1 -26.253704 0.000000 33.147579
RightShoulder -29.117624 -76.063473 -1.120552
RightArm 50.589375 -42.016505 32.342658
RightForeArm 17.194345 -0.000000 71.195722
RightHand -2.624459 -0.000000 36.591488
RightHandThumb1 -24.326973 -0.000000 -32.862282
LeftUpLeg -32.715189 11.011529 -4.472550
LeftLeg 20.598611 -0.000000 -0.000000
LeftFoot -18.477776 11.090748 -15.984065
LeftToeBase 8.880243 -0.000000 -0.000000
RightUpLeg -35.554782 -4.871618 -10.266181
RightLeg 17.460579 -0.000000 -0.000000
RightFoot -10.979075 3.481597 20.265242
RightToeBase 13.906193 -0.000000 -0.000000
1068
root 3.720496 35.889513 4.211556 -144.119232 -78.966338 172.798849
Spine -29.131168 -14.892606 -1.960137
Head 51.382931 -12.845259 -17.129146
LeftShoulder 14.767814 -0.314707 27.483772
LeftArm 109.275778 41.878497 -34.106729
LeftForeArm -1.770068 0.000000 92.155909
LeftHand -7.046684 -0.000000 -17.315440
LeftHandThumb1 -26.253704 0.000000 33.147579
RightShoulder -28.931021 -75.987999 -1.307267
RightArm 50.232728 -41.819391 32.808504
RightForeArm 21.100487 -0.000000 71.312891
RightHand -2.743388 -0.000000 36.777386
RightHandThumb1 -24.326973 -0.000000 -32.862282
LeftUpLeg -32.776629 10.983278 -4.510100
LeftLeg 20.608020 -0.000000 -0.000000
LeftFoot -18.470683 11.090580 -15.975943
LeftToeBase 8.880575 -0.000000 -0.000000
RightUpLeg -35.606465 -4.889940 -10.295287
RightLeg 17.479475 -0.000000 -0.000000
RightFoot -10.989735 3.448831 20.288599
RightToeBase 13.881175 -0.000000 -0.000000
